<mxfile host="app.diagrams.net" modified="2023-11-09T03:13:03.820Z" agent="Mozilla/5.0 (X11; Linux x86_64) AppleWebKit/537.36 (KHTML, like Gecko) Chrome/119.0.0.0 Safari/537.36" etag="ggIpygbd0puujrYnPoET" version="22.1.0" type="github" pages="4">
  <diagram name="0001" id="2BJK_bVkJtuhxQqg97SX">
    <mxGraphModel dx="956" dy="505" grid="1" gridSize="10" guides="1" tooltips="1" connect="1" arrows="1" fold="1" page="1" pageScale="1" pageWidth="1169" pageHeight="827" math="0" shadow="0">
      <root>
        <mxCell id="AIVapQDfSflTo-PrOUCk-0" />
        <mxCell id="AIVapQDfSflTo-PrOUCk-1" parent="AIVapQDfSflTo-PrOUCk-0" />
        <mxCell id="AIVapQDfSflTo-PrOUCk-2" value="&lt;b style=&quot;font-size: 16px;&quot;&gt;项目模型A&lt;/b&gt;" style="text;html=1;align=left;verticalAlign=middle;resizable=0;points=[];autosize=1;strokeColor=none;fillColor=none;fontSize=16;rounded=0;labelBackgroundColor=none;" vertex="1" parent="AIVapQDfSflTo-PrOUCk-1">
          <mxGeometry x="40.5" y="20" width="100" height="30" as="geometry" />
        </mxCell>
        <mxCell id="AIVapQDfSflTo-PrOUCk-3" value="" style="rounded=0;orthogonalLoop=1;jettySize=auto;html=1;entryX=1;entryY=0.5;entryDx=0;entryDy=0;exitX=0;exitY=0.5;exitDx=0;exitDy=0;startArrow=classic;startFill=1;endArrow=none;endFill=0;" edge="1" parent="AIVapQDfSflTo-PrOUCk-1" source="AIVapQDfSflTo-PrOUCk-10" target="AIVapQDfSflTo-PrOUCk-11">
          <mxGeometry relative="1" as="geometry" />
        </mxCell>
        <mxCell id="AIVapQDfSflTo-PrOUCk-4" value="" style="edgeStyle=orthogonalEdgeStyle;rounded=0;orthogonalLoop=1;jettySize=auto;html=1;entryX=0;entryY=0.5;entryDx=0;entryDy=0;" edge="1" parent="AIVapQDfSflTo-PrOUCk-1" source="AIVapQDfSflTo-PrOUCk-10" target="AIVapQDfSflTo-PrOUCk-14">
          <mxGeometry relative="1" as="geometry">
            <Array as="points">
              <mxPoint x="520" y="180" />
              <mxPoint x="520" y="100" />
            </Array>
          </mxGeometry>
        </mxCell>
        <mxCell id="AIVapQDfSflTo-PrOUCk-5" value="" style="edgeStyle=orthogonalEdgeStyle;rounded=0;orthogonalLoop=1;jettySize=auto;html=1;entryX=0;entryY=0.5;entryDx=0;entryDy=0;" edge="1" parent="AIVapQDfSflTo-PrOUCk-1" source="AIVapQDfSflTo-PrOUCk-10" target="AIVapQDfSflTo-PrOUCk-15">
          <mxGeometry relative="1" as="geometry">
            <Array as="points">
              <mxPoint x="520" y="180" />
              <mxPoint x="520" y="260" />
            </Array>
          </mxGeometry>
        </mxCell>
        <mxCell id="AIVapQDfSflTo-PrOUCk-6" value="" style="edgeStyle=orthogonalEdgeStyle;rounded=0;orthogonalLoop=1;jettySize=auto;html=1;" edge="1" parent="AIVapQDfSflTo-PrOUCk-1" source="AIVapQDfSflTo-PrOUCk-10" target="AIVapQDfSflTo-PrOUCk-16">
          <mxGeometry relative="1" as="geometry" />
        </mxCell>
        <mxCell id="AIVapQDfSflTo-PrOUCk-10" value="项目部" style="rounded=0;whiteSpace=wrap;html=1;" vertex="1" parent="AIVapQDfSflTo-PrOUCk-1">
          <mxGeometry x="320" y="160" width="120" height="40" as="geometry" />
        </mxCell>
        <mxCell id="AIVapQDfSflTo-PrOUCk-11" value="水处管理处" style="rounded=0;whiteSpace=wrap;html=1;" vertex="1" parent="AIVapQDfSflTo-PrOUCk-1">
          <mxGeometry x="40" y="160" width="120" height="40" as="geometry" />
        </mxCell>
        <mxCell id="AIVapQDfSflTo-PrOUCk-12" value="1、成立" style="text;html=1;align=center;verticalAlign=middle;resizable=0;points=[];autosize=1;strokeColor=none;fillColor=none;" vertex="1" parent="AIVapQDfSflTo-PrOUCk-1">
          <mxGeometry x="190" y="149" width="70" height="30" as="geometry" />
        </mxCell>
        <mxCell id="AIVapQDfSflTo-PrOUCk-14" value="施工段A" style="rounded=0;whiteSpace=wrap;html=1;" vertex="1" parent="AIVapQDfSflTo-PrOUCk-1">
          <mxGeometry x="560" y="80" width="120" height="40" as="geometry" />
        </mxCell>
        <mxCell id="AIVapQDfSflTo-PrOUCk-15" value="施工段C" style="rounded=0;whiteSpace=wrap;html=1;" vertex="1" parent="AIVapQDfSflTo-PrOUCk-1">
          <mxGeometry x="560" y="240" width="120" height="40" as="geometry" />
        </mxCell>
        <mxCell id="0CxGgTPP8pX-zQjfdwwH-1" value="" style="edgeStyle=orthogonalEdgeStyle;rounded=0;orthogonalLoop=1;jettySize=auto;html=1;entryX=0;entryY=0.5;entryDx=0;entryDy=0;dashed=1;" edge="1" parent="AIVapQDfSflTo-PrOUCk-1" source="AIVapQDfSflTo-PrOUCk-16" target="0CxGgTPP8pX-zQjfdwwH-0">
          <mxGeometry relative="1" as="geometry">
            <Array as="points">
              <mxPoint x="760" y="180" />
              <mxPoint x="760" y="100" />
            </Array>
          </mxGeometry>
        </mxCell>
        <mxCell id="0CxGgTPP8pX-zQjfdwwH-3" value="" style="edgeStyle=orthogonalEdgeStyle;rounded=0;orthogonalLoop=1;jettySize=auto;html=1;entryX=0;entryY=0.5;entryDx=0;entryDy=0;dashed=1;" edge="1" parent="AIVapQDfSflTo-PrOUCk-1" source="AIVapQDfSflTo-PrOUCk-16" target="0CxGgTPP8pX-zQjfdwwH-2">
          <mxGeometry relative="1" as="geometry">
            <Array as="points">
              <mxPoint x="760" y="180" />
              <mxPoint x="760" y="260" />
            </Array>
          </mxGeometry>
        </mxCell>
        <mxCell id="0CxGgTPP8pX-zQjfdwwH-5" value="" style="edgeStyle=orthogonalEdgeStyle;rounded=0;orthogonalLoop=1;jettySize=auto;html=1;dashed=1;" edge="1" parent="AIVapQDfSflTo-PrOUCk-1" source="AIVapQDfSflTo-PrOUCk-16" target="0CxGgTPP8pX-zQjfdwwH-4">
          <mxGeometry relative="1" as="geometry" />
        </mxCell>
        <mxCell id="AIVapQDfSflTo-PrOUCk-16" value="施工段B" style="rounded=0;whiteSpace=wrap;html=1;" vertex="1" parent="AIVapQDfSflTo-PrOUCk-1">
          <mxGeometry x="560" y="160" width="120" height="40" as="geometry" />
        </mxCell>
        <mxCell id="AIVapQDfSflTo-PrOUCk-23" value="2、管理" style="text;html=1;align=center;verticalAlign=middle;resizable=0;points=[];autosize=1;strokeColor=none;fillColor=none;" vertex="1" parent="AIVapQDfSflTo-PrOUCk-1">
          <mxGeometry x="445" y="147" width="70" height="30" as="geometry" />
        </mxCell>
        <mxCell id="0CxGgTPP8pX-zQjfdwwH-0" value="施工点A" style="rounded=0;whiteSpace=wrap;html=1;" vertex="1" parent="AIVapQDfSflTo-PrOUCk-1">
          <mxGeometry x="800" y="80" width="120" height="40" as="geometry" />
        </mxCell>
        <mxCell id="0CxGgTPP8pX-zQjfdwwH-2" value="施工点C" style="rounded=0;whiteSpace=wrap;html=1;" vertex="1" parent="AIVapQDfSflTo-PrOUCk-1">
          <mxGeometry x="800" y="240" width="120" height="40" as="geometry" />
        </mxCell>
        <mxCell id="0CxGgTPP8pX-zQjfdwwH-4" value="施工点B" style="rounded=0;whiteSpace=wrap;html=1;" vertex="1" parent="AIVapQDfSflTo-PrOUCk-1">
          <mxGeometry x="800" y="160" width="120" height="40" as="geometry" />
        </mxCell>
        <mxCell id="0CxGgTPP8pX-zQjfdwwH-6" value="包括" style="text;html=1;align=center;verticalAlign=middle;resizable=0;points=[];autosize=1;strokeColor=none;fillColor=none;" vertex="1" parent="AIVapQDfSflTo-PrOUCk-1">
          <mxGeometry x="695" y="148" width="50" height="30" as="geometry" />
        </mxCell>
      </root>
    </mxGraphModel>
  </diagram>
  <diagram name="0002" id="y2zCg2tqc-IcQTNm7M6H">
    <mxGraphModel dx="956" dy="505" grid="1" gridSize="10" guides="1" tooltips="1" connect="1" arrows="1" fold="1" page="1" pageScale="1" pageWidth="1169" pageHeight="827" math="0" shadow="0">
      <root>
        <mxCell id="sdHGfgtrLrPXHbDimJ2l-0" />
        <mxCell id="sdHGfgtrLrPXHbDimJ2l-1" parent="sdHGfgtrLrPXHbDimJ2l-0" />
        <mxCell id="sdHGfgtrLrPXHbDimJ2l-57" value="&lt;b style=&quot;font-size: 16px;&quot;&gt;项目模型B&lt;/b&gt;" style="text;html=1;align=left;verticalAlign=middle;resizable=0;points=[];autosize=1;strokeColor=none;fillColor=none;fontSize=16;rounded=0;labelBackgroundColor=none;" parent="sdHGfgtrLrPXHbDimJ2l-1" vertex="1">
          <mxGeometry x="40.5" y="20" width="100" height="30" as="geometry" />
        </mxCell>
        <mxCell id="HL12fgJ5XwXz7NJd2X_L-1" value="" style="rounded=0;orthogonalLoop=1;jettySize=auto;html=1;entryX=1;entryY=0.5;entryDx=0;entryDy=0;exitX=0;exitY=0.5;exitDx=0;exitDy=0;startArrow=classic;startFill=1;endArrow=none;endFill=0;" parent="sdHGfgtrLrPXHbDimJ2l-1" source="DtQQWt-DvLBq8CPffun4-25" target="HL12fgJ5XwXz7NJd2X_L-0" edge="1">
          <mxGeometry relative="1" as="geometry" />
        </mxCell>
        <mxCell id="BgxtSr9YYNLrN_vWo965-9" value="" style="edgeStyle=orthogonalEdgeStyle;rounded=0;orthogonalLoop=1;jettySize=auto;html=1;entryX=0;entryY=0.5;entryDx=0;entryDy=0;" edge="1" parent="sdHGfgtrLrPXHbDimJ2l-1" source="DtQQWt-DvLBq8CPffun4-25" target="BgxtSr9YYNLrN_vWo965-8">
          <mxGeometry relative="1" as="geometry">
            <Array as="points">
              <mxPoint x="520" y="180" />
              <mxPoint x="520" y="100" />
            </Array>
          </mxGeometry>
        </mxCell>
        <mxCell id="BgxtSr9YYNLrN_vWo965-11" value="" style="edgeStyle=orthogonalEdgeStyle;rounded=0;orthogonalLoop=1;jettySize=auto;html=1;entryX=0;entryY=0.5;entryDx=0;entryDy=0;" edge="1" parent="sdHGfgtrLrPXHbDimJ2l-1" source="DtQQWt-DvLBq8CPffun4-25" target="BgxtSr9YYNLrN_vWo965-10">
          <mxGeometry relative="1" as="geometry">
            <Array as="points">
              <mxPoint x="520" y="180" />
              <mxPoint x="520" y="260" />
            </Array>
          </mxGeometry>
        </mxCell>
        <mxCell id="BgxtSr9YYNLrN_vWo965-13" value="" style="edgeStyle=orthogonalEdgeStyle;rounded=0;orthogonalLoop=1;jettySize=auto;html=1;" edge="1" parent="sdHGfgtrLrPXHbDimJ2l-1" source="DtQQWt-DvLBq8CPffun4-25" target="BgxtSr9YYNLrN_vWo965-12">
          <mxGeometry relative="1" as="geometry" />
        </mxCell>
        <mxCell id="BgxtSr9YYNLrN_vWo965-17" value="" style="edgeStyle=orthogonalEdgeStyle;rounded=0;orthogonalLoop=1;jettySize=auto;html=1;exitX=0.5;exitY=1;exitDx=0;exitDy=0;" edge="1" parent="sdHGfgtrLrPXHbDimJ2l-1" source="DtQQWt-DvLBq8CPffun4-25" target="BgxtSr9YYNLrN_vWo965-16">
          <mxGeometry relative="1" as="geometry">
            <Array as="points">
              <mxPoint x="380" y="290" />
              <mxPoint x="540" y="290" />
            </Array>
          </mxGeometry>
        </mxCell>
        <mxCell id="BgxtSr9YYNLrN_vWo965-19" value="" style="edgeStyle=orthogonalEdgeStyle;rounded=0;orthogonalLoop=1;jettySize=auto;html=1;exitX=0.5;exitY=1;exitDx=0;exitDy=0;" edge="1" parent="sdHGfgtrLrPXHbDimJ2l-1" source="DtQQWt-DvLBq8CPffun4-25" target="BgxtSr9YYNLrN_vWo965-18">
          <mxGeometry relative="1" as="geometry">
            <Array as="points">
              <mxPoint x="380" y="290" />
              <mxPoint x="220" y="290" />
            </Array>
          </mxGeometry>
        </mxCell>
        <mxCell id="BgxtSr9YYNLrN_vWo965-21" value="" style="edgeStyle=orthogonalEdgeStyle;rounded=0;orthogonalLoop=1;jettySize=auto;html=1;" edge="1" parent="sdHGfgtrLrPXHbDimJ2l-1" source="DtQQWt-DvLBq8CPffun4-25" target="BgxtSr9YYNLrN_vWo965-20">
          <mxGeometry relative="1" as="geometry" />
        </mxCell>
        <mxCell id="DtQQWt-DvLBq8CPffun4-25" value="项目部" style="rounded=0;whiteSpace=wrap;html=1;" parent="sdHGfgtrLrPXHbDimJ2l-1" vertex="1">
          <mxGeometry x="320" y="160" width="120" height="40" as="geometry" />
        </mxCell>
        <mxCell id="HL12fgJ5XwXz7NJd2X_L-0" value="水处管理处" style="rounded=0;whiteSpace=wrap;html=1;" parent="sdHGfgtrLrPXHbDimJ2l-1" vertex="1">
          <mxGeometry x="40" y="160" width="120" height="40" as="geometry" />
        </mxCell>
        <mxCell id="HL12fgJ5XwXz7NJd2X_L-2" value="1、成立" style="text;html=1;align=center;verticalAlign=middle;resizable=0;points=[];autosize=1;strokeColor=none;fillColor=none;" parent="sdHGfgtrLrPXHbDimJ2l-1" vertex="1">
          <mxGeometry x="190" y="149" width="70" height="30" as="geometry" />
        </mxCell>
        <mxCell id="BgxtSr9YYNLrN_vWo965-6" value="3、分包" style="text;html=1;align=center;verticalAlign=middle;resizable=0;points=[];autosize=1;strokeColor=none;fillColor=none;" vertex="1" parent="sdHGfgtrLrPXHbDimJ2l-1">
          <mxGeometry x="310" y="250" width="70" height="30" as="geometry" />
        </mxCell>
        <mxCell id="BgxtSr9YYNLrN_vWo965-8" value="施工段A" style="rounded=0;whiteSpace=wrap;html=1;" vertex="1" parent="sdHGfgtrLrPXHbDimJ2l-1">
          <mxGeometry x="560" y="80" width="120" height="40" as="geometry" />
        </mxCell>
        <mxCell id="BgxtSr9YYNLrN_vWo965-10" value="施工段C" style="rounded=0;whiteSpace=wrap;html=1;" vertex="1" parent="sdHGfgtrLrPXHbDimJ2l-1">
          <mxGeometry x="560" y="240" width="120" height="40" as="geometry" />
        </mxCell>
        <mxCell id="BgxtSr9YYNLrN_vWo965-12" value="施工段B" style="rounded=0;whiteSpace=wrap;html=1;" vertex="1" parent="sdHGfgtrLrPXHbDimJ2l-1">
          <mxGeometry x="560" y="160" width="120" height="40" as="geometry" />
        </mxCell>
        <mxCell id="BgxtSr9YYNLrN_vWo965-28" value="" style="edgeStyle=orthogonalEdgeStyle;rounded=0;orthogonalLoop=1;jettySize=auto;html=1;entryX=1;entryY=0.5;entryDx=0;entryDy=0;dashed=1;dashPattern=8 8;" edge="1" parent="sdHGfgtrLrPXHbDimJ2l-1" source="BgxtSr9YYNLrN_vWo965-16" target="BgxtSr9YYNLrN_vWo965-12">
          <mxGeometry relative="1" as="geometry">
            <mxPoint x="540" y="440" as="targetPoint" />
            <Array as="points">
              <mxPoint x="540" y="400" />
              <mxPoint x="800" y="400" />
              <mxPoint x="800" y="180" />
            </Array>
          </mxGeometry>
        </mxCell>
        <mxCell id="BgxtSr9YYNLrN_vWo965-16" value="监理企业" style="rounded=0;whiteSpace=wrap;html=1;" vertex="1" parent="sdHGfgtrLrPXHbDimJ2l-1">
          <mxGeometry x="480" y="320" width="120" height="40" as="geometry" />
        </mxCell>
        <mxCell id="BgxtSr9YYNLrN_vWo965-24" value="" style="edgeStyle=orthogonalEdgeStyle;rounded=0;orthogonalLoop=1;jettySize=auto;html=1;entryX=1;entryY=0.5;entryDx=0;entryDy=0;dashed=1;dashPattern=8 8;" edge="1" parent="sdHGfgtrLrPXHbDimJ2l-1" source="BgxtSr9YYNLrN_vWo965-18" target="BgxtSr9YYNLrN_vWo965-12">
          <mxGeometry relative="1" as="geometry">
            <mxPoint x="220" y="440" as="targetPoint" />
            <Array as="points">
              <mxPoint x="220" y="480" />
              <mxPoint x="800" y="480" />
              <mxPoint x="800" y="180" />
            </Array>
          </mxGeometry>
        </mxCell>
        <mxCell id="BgxtSr9YYNLrN_vWo965-18" value="设计企业" style="rounded=0;whiteSpace=wrap;html=1;" vertex="1" parent="sdHGfgtrLrPXHbDimJ2l-1">
          <mxGeometry x="160" y="320" width="120" height="40" as="geometry" />
        </mxCell>
        <mxCell id="BgxtSr9YYNLrN_vWo965-26" value="" style="edgeStyle=orthogonalEdgeStyle;rounded=0;orthogonalLoop=1;jettySize=auto;html=1;entryX=1;entryY=0.5;entryDx=0;entryDy=0;dashed=1;dashPattern=8 8;" edge="1" parent="sdHGfgtrLrPXHbDimJ2l-1" source="BgxtSr9YYNLrN_vWo965-20" target="BgxtSr9YYNLrN_vWo965-12">
          <mxGeometry relative="1" as="geometry">
            <mxPoint x="380" y="440" as="targetPoint" />
            <Array as="points">
              <mxPoint x="380" y="440" />
              <mxPoint x="800" y="440" />
              <mxPoint x="800" y="180" />
            </Array>
          </mxGeometry>
        </mxCell>
        <mxCell id="BgxtSr9YYNLrN_vWo965-20" value="施工企业" style="rounded=0;whiteSpace=wrap;html=1;" vertex="1" parent="sdHGfgtrLrPXHbDimJ2l-1">
          <mxGeometry x="320" y="320" width="120" height="40" as="geometry" />
        </mxCell>
        <mxCell id="BgxtSr9YYNLrN_vWo965-22" value="2、管理" style="text;html=1;align=center;verticalAlign=middle;resizable=0;points=[];autosize=1;strokeColor=none;fillColor=none;" vertex="1" parent="sdHGfgtrLrPXHbDimJ2l-1">
          <mxGeometry x="445" y="147" width="70" height="30" as="geometry" />
        </mxCell>
        <mxCell id="BgxtSr9YYNLrN_vWo965-29" value="4、出设计方案" style="text;html=1;align=center;verticalAlign=middle;resizable=0;points=[];autosize=1;strokeColor=none;fillColor=none;" vertex="1" parent="sdHGfgtrLrPXHbDimJ2l-1">
          <mxGeometry x="235" y="441" width="100" height="30" as="geometry" />
        </mxCell>
        <mxCell id="BgxtSr9YYNLrN_vWo965-30" value="5、组织施工" style="text;html=1;align=center;verticalAlign=middle;resizable=0;points=[];autosize=1;strokeColor=none;fillColor=none;" vertex="1" parent="sdHGfgtrLrPXHbDimJ2l-1">
          <mxGeometry x="410" y="399" width="90" height="30" as="geometry" />
        </mxCell>
        <mxCell id="BgxtSr9YYNLrN_vWo965-31" value="6、质量管理" style="text;html=1;align=center;verticalAlign=middle;resizable=0;points=[];autosize=1;strokeColor=none;fillColor=none;" vertex="1" parent="sdHGfgtrLrPXHbDimJ2l-1">
          <mxGeometry x="620" y="360" width="90" height="30" as="geometry" />
        </mxCell>
      </root>
    </mxGraphModel>
  </diagram>
  <diagram name="0003" id="R3ds-sNt3pHZ7mbAwjhy">
    <mxGraphModel dx="956" dy="505" grid="1" gridSize="10" guides="1" tooltips="1" connect="1" arrows="1" fold="1" page="1" pageScale="1" pageWidth="1169" pageHeight="827" math="0" shadow="0">
      <root>
        <mxCell id="Yx7ElADZh4C4Kj-N4jjc-0" />
        <mxCell id="Yx7ElADZh4C4Kj-N4jjc-1" parent="Yx7ElADZh4C4Kj-N4jjc-0" />
        <mxCell id="Yx7ElADZh4C4Kj-N4jjc-2" value="&lt;b style=&quot;font-size: 16px;&quot;&gt;项目模型C&lt;/b&gt;" style="text;html=1;align=left;verticalAlign=middle;resizable=0;points=[];autosize=1;strokeColor=none;fillColor=none;fontSize=16;rounded=0;labelBackgroundColor=none;" vertex="1" parent="Yx7ElADZh4C4Kj-N4jjc-1">
          <mxGeometry x="40.5" y="20" width="100" height="30" as="geometry" />
        </mxCell>
        <mxCell id="Yx7ElADZh4C4Kj-N4jjc-3" value="" style="rounded=0;orthogonalLoop=1;jettySize=auto;html=1;entryX=1;entryY=0.5;entryDx=0;entryDy=0;exitX=0;exitY=0.5;exitDx=0;exitDy=0;startArrow=classic;startFill=1;endArrow=none;endFill=0;" edge="1" parent="Yx7ElADZh4C4Kj-N4jjc-1" source="Yx7ElADZh4C4Kj-N4jjc-10" target="Yx7ElADZh4C4Kj-N4jjc-11">
          <mxGeometry relative="1" as="geometry" />
        </mxCell>
        <mxCell id="Yx7ElADZh4C4Kj-N4jjc-4" value="" style="edgeStyle=orthogonalEdgeStyle;rounded=0;orthogonalLoop=1;jettySize=auto;html=1;entryX=0;entryY=0.5;entryDx=0;entryDy=0;" edge="1" parent="Yx7ElADZh4C4Kj-N4jjc-1" source="Yx7ElADZh4C4Kj-N4jjc-10" target="Yx7ElADZh4C4Kj-N4jjc-14">
          <mxGeometry relative="1" as="geometry">
            <Array as="points">
              <mxPoint x="560" y="180" />
              <mxPoint x="560" y="100" />
            </Array>
          </mxGeometry>
        </mxCell>
        <mxCell id="Yx7ElADZh4C4Kj-N4jjc-5" value="" style="edgeStyle=orthogonalEdgeStyle;rounded=0;orthogonalLoop=1;jettySize=auto;html=1;entryX=0;entryY=0.5;entryDx=0;entryDy=0;" edge="1" parent="Yx7ElADZh4C4Kj-N4jjc-1" source="Yx7ElADZh4C4Kj-N4jjc-10" target="Yx7ElADZh4C4Kj-N4jjc-15">
          <mxGeometry relative="1" as="geometry">
            <Array as="points">
              <mxPoint x="560" y="180" />
              <mxPoint x="560" y="260" />
            </Array>
          </mxGeometry>
        </mxCell>
        <mxCell id="Yx7ElADZh4C4Kj-N4jjc-6" value="" style="edgeStyle=orthogonalEdgeStyle;rounded=0;orthogonalLoop=1;jettySize=auto;html=1;" edge="1" parent="Yx7ElADZh4C4Kj-N4jjc-1" source="Yx7ElADZh4C4Kj-N4jjc-10" target="Yx7ElADZh4C4Kj-N4jjc-16">
          <mxGeometry relative="1" as="geometry" />
        </mxCell>
        <mxCell id="Yx7ElADZh4C4Kj-N4jjc-7" value="" style="edgeStyle=orthogonalEdgeStyle;rounded=0;orthogonalLoop=1;jettySize=auto;html=1;exitX=0.5;exitY=1;exitDx=0;exitDy=0;" edge="1" parent="Yx7ElADZh4C4Kj-N4jjc-1" source="Yx7ElADZh4C4Kj-N4jjc-10" target="Yx7ElADZh4C4Kj-N4jjc-18">
          <mxGeometry relative="1" as="geometry">
            <Array as="points">
              <mxPoint x="380" y="290" />
              <mxPoint x="540" y="290" />
            </Array>
          </mxGeometry>
        </mxCell>
        <mxCell id="Yx7ElADZh4C4Kj-N4jjc-8" value="" style="edgeStyle=orthogonalEdgeStyle;rounded=0;orthogonalLoop=1;jettySize=auto;html=1;exitX=0.5;exitY=1;exitDx=0;exitDy=0;" edge="1" parent="Yx7ElADZh4C4Kj-N4jjc-1" source="Yx7ElADZh4C4Kj-N4jjc-10" target="Yx7ElADZh4C4Kj-N4jjc-20">
          <mxGeometry relative="1" as="geometry">
            <Array as="points">
              <mxPoint x="380" y="290" />
              <mxPoint x="220" y="290" />
            </Array>
          </mxGeometry>
        </mxCell>
        <mxCell id="Yx7ElADZh4C4Kj-N4jjc-9" value="" style="edgeStyle=orthogonalEdgeStyle;rounded=0;orthogonalLoop=1;jettySize=auto;html=1;" edge="1" parent="Yx7ElADZh4C4Kj-N4jjc-1" source="Yx7ElADZh4C4Kj-N4jjc-10" target="Yx7ElADZh4C4Kj-N4jjc-22">
          <mxGeometry relative="1" as="geometry" />
        </mxCell>
        <mxCell id="fOOhsBB2q57jEKFIF3J_-1" value="" style="edgeStyle=orthogonalEdgeStyle;rounded=0;orthogonalLoop=1;jettySize=auto;html=1;exitX=0.75;exitY=0;exitDx=0;exitDy=0;entryX=0.225;entryY=-0.05;entryDx=0;entryDy=0;entryPerimeter=0;" edge="1" parent="Yx7ElADZh4C4Kj-N4jjc-1" source="Yx7ElADZh4C4Kj-N4jjc-10" target="Yx7ElADZh4C4Kj-N4jjc-10">
          <mxGeometry relative="1" as="geometry">
            <mxPoint x="380" y="80" as="targetPoint" />
            <Array as="points">
              <mxPoint x="410" y="120" />
              <mxPoint x="347" y="120" />
            </Array>
          </mxGeometry>
        </mxCell>
        <mxCell id="Yx7ElADZh4C4Kj-N4jjc-10" value="项目部" style="rounded=0;whiteSpace=wrap;html=1;" vertex="1" parent="Yx7ElADZh4C4Kj-N4jjc-1">
          <mxGeometry x="320" y="160" width="120" height="40" as="geometry" />
        </mxCell>
        <mxCell id="Yx7ElADZh4C4Kj-N4jjc-11" value="水处管理处" style="rounded=0;whiteSpace=wrap;html=1;" vertex="1" parent="Yx7ElADZh4C4Kj-N4jjc-1">
          <mxGeometry x="40" y="160" width="120" height="40" as="geometry" />
        </mxCell>
        <mxCell id="Yx7ElADZh4C4Kj-N4jjc-12" value="1、成立" style="text;html=1;align=center;verticalAlign=middle;resizable=0;points=[];autosize=1;strokeColor=none;fillColor=none;" vertex="1" parent="Yx7ElADZh4C4Kj-N4jjc-1">
          <mxGeometry x="190" y="149" width="70" height="30" as="geometry" />
        </mxCell>
        <mxCell id="Yx7ElADZh4C4Kj-N4jjc-13" value="4、下发督促涵" style="text;html=1;align=center;verticalAlign=middle;resizable=0;points=[];autosize=1;strokeColor=none;fillColor=none;" vertex="1" parent="Yx7ElADZh4C4Kj-N4jjc-1">
          <mxGeometry x="260" y="241" width="100" height="30" as="geometry" />
        </mxCell>
        <mxCell id="Yx7ElADZh4C4Kj-N4jjc-14" value="施工段A" style="rounded=0;whiteSpace=wrap;html=1;" vertex="1" parent="Yx7ElADZh4C4Kj-N4jjc-1">
          <mxGeometry x="600" y="80" width="120" height="40" as="geometry" />
        </mxCell>
        <mxCell id="Yx7ElADZh4C4Kj-N4jjc-15" value="施工段C" style="rounded=0;whiteSpace=wrap;html=1;" vertex="1" parent="Yx7ElADZh4C4Kj-N4jjc-1">
          <mxGeometry x="600" y="240" width="120" height="40" as="geometry" />
        </mxCell>
        <mxCell id="Yx7ElADZh4C4Kj-N4jjc-16" value="施工段B" style="rounded=0;whiteSpace=wrap;html=1;" vertex="1" parent="Yx7ElADZh4C4Kj-N4jjc-1">
          <mxGeometry x="600" y="160" width="120" height="40" as="geometry" />
        </mxCell>
        <mxCell id="Yx7ElADZh4C4Kj-N4jjc-17" value="" style="edgeStyle=orthogonalEdgeStyle;rounded=0;orthogonalLoop=1;jettySize=auto;html=1;entryX=1;entryY=0.5;entryDx=0;entryDy=0;dashed=1;dashPattern=8 8;" edge="1" parent="Yx7ElADZh4C4Kj-N4jjc-1" source="Yx7ElADZh4C4Kj-N4jjc-18" target="Yx7ElADZh4C4Kj-N4jjc-16">
          <mxGeometry relative="1" as="geometry">
            <mxPoint x="540" y="440" as="targetPoint" />
            <Array as="points">
              <mxPoint x="540" y="400" />
              <mxPoint x="800" y="400" />
              <mxPoint x="800" y="180" />
            </Array>
          </mxGeometry>
        </mxCell>
        <mxCell id="Yx7ElADZh4C4Kj-N4jjc-18" value="监理企业" style="rounded=0;whiteSpace=wrap;html=1;" vertex="1" parent="Yx7ElADZh4C4Kj-N4jjc-1">
          <mxGeometry x="480" y="320" width="120" height="40" as="geometry" />
        </mxCell>
        <mxCell id="Yx7ElADZh4C4Kj-N4jjc-19" value="" style="edgeStyle=orthogonalEdgeStyle;rounded=0;orthogonalLoop=1;jettySize=auto;html=1;entryX=1;entryY=0.5;entryDx=0;entryDy=0;dashed=1;dashPattern=8 8;" edge="1" parent="Yx7ElADZh4C4Kj-N4jjc-1" source="Yx7ElADZh4C4Kj-N4jjc-20" target="Yx7ElADZh4C4Kj-N4jjc-16">
          <mxGeometry relative="1" as="geometry">
            <mxPoint x="220" y="440" as="targetPoint" />
            <Array as="points">
              <mxPoint x="220" y="480" />
              <mxPoint x="800" y="480" />
              <mxPoint x="800" y="180" />
            </Array>
          </mxGeometry>
        </mxCell>
        <mxCell id="Yx7ElADZh4C4Kj-N4jjc-20" value="设计企业" style="rounded=0;whiteSpace=wrap;html=1;" vertex="1" parent="Yx7ElADZh4C4Kj-N4jjc-1">
          <mxGeometry x="160" y="320" width="120" height="40" as="geometry" />
        </mxCell>
        <mxCell id="Yx7ElADZh4C4Kj-N4jjc-21" value="" style="edgeStyle=orthogonalEdgeStyle;rounded=0;orthogonalLoop=1;jettySize=auto;html=1;entryX=1;entryY=0.5;entryDx=0;entryDy=0;dashed=1;dashPattern=8 8;" edge="1" parent="Yx7ElADZh4C4Kj-N4jjc-1" source="Yx7ElADZh4C4Kj-N4jjc-22" target="Yx7ElADZh4C4Kj-N4jjc-16">
          <mxGeometry relative="1" as="geometry">
            <mxPoint x="380" y="440" as="targetPoint" />
            <Array as="points">
              <mxPoint x="380" y="440" />
              <mxPoint x="800" y="440" />
              <mxPoint x="800" y="180" />
            </Array>
          </mxGeometry>
        </mxCell>
        <mxCell id="Yx7ElADZh4C4Kj-N4jjc-22" value="施工企业" style="rounded=0;whiteSpace=wrap;html=1;" vertex="1" parent="Yx7ElADZh4C4Kj-N4jjc-1">
          <mxGeometry x="320" y="320" width="120" height="40" as="geometry" />
        </mxCell>
        <mxCell id="Yx7ElADZh4C4Kj-N4jjc-23" value="2、验收" style="text;html=1;align=center;verticalAlign=middle;resizable=0;points=[];autosize=1;strokeColor=none;fillColor=none;" vertex="1" parent="Yx7ElADZh4C4Kj-N4jjc-1">
          <mxGeometry x="451" y="147" width="70" height="30" as="geometry" />
        </mxCell>
        <mxCell id="Yx7ElADZh4C4Kj-N4jjc-24" value="5、调整设计方案" style="text;html=1;align=center;verticalAlign=middle;resizable=0;points=[];autosize=1;strokeColor=none;fillColor=none;" vertex="1" parent="Yx7ElADZh4C4Kj-N4jjc-1">
          <mxGeometry x="230" y="441" width="110" height="30" as="geometry" />
        </mxCell>
        <mxCell id="Yx7ElADZh4C4Kj-N4jjc-25" value="6、排查施工问题" style="text;html=1;align=center;verticalAlign=middle;resizable=0;points=[];autosize=1;strokeColor=none;fillColor=none;" vertex="1" parent="Yx7ElADZh4C4Kj-N4jjc-1">
          <mxGeometry x="400" y="399" width="110" height="30" as="geometry" />
        </mxCell>
        <mxCell id="Yx7ElADZh4C4Kj-N4jjc-26" value="7、加强质量管理力度" style="text;html=1;align=center;verticalAlign=middle;resizable=0;points=[];autosize=1;strokeColor=none;fillColor=none;" vertex="1" parent="Yx7ElADZh4C4Kj-N4jjc-1">
          <mxGeometry x="595" y="360" width="140" height="30" as="geometry" />
        </mxCell>
        <mxCell id="fOOhsBB2q57jEKFIF3J_-2" value="3、专家评审结果未通过验收" style="text;html=1;align=center;verticalAlign=middle;resizable=0;points=[];autosize=1;strokeColor=none;fillColor=none;" vertex="1" parent="Yx7ElADZh4C4Kj-N4jjc-1">
          <mxGeometry x="285" y="85" width="170" height="30" as="geometry" />
        </mxCell>
      </root>
    </mxGraphModel>
  </diagram>
  <diagram name="0004" id="qKrR5FMw_t47U3WHOTaD">
    <mxGraphModel dx="956" dy="505" grid="1" gridSize="10" guides="1" tooltips="1" connect="1" arrows="1" fold="1" page="1" pageScale="1" pageWidth="1169" pageHeight="827" math="0" shadow="0">
      <root>
        <mxCell id="1kh6kqir1uOIHt-jGFc--0" />
        <mxCell id="1kh6kqir1uOIHt-jGFc--1" parent="1kh6kqir1uOIHt-jGFc--0" />
        <mxCell id="1kh6kqir1uOIHt-jGFc--2" value="&lt;b style=&quot;font-size: 16px;&quot;&gt;项目模型D&lt;/b&gt;" style="text;html=1;align=left;verticalAlign=middle;resizable=0;points=[];autosize=1;strokeColor=none;fillColor=none;fontSize=16;rounded=0;labelBackgroundColor=none;" vertex="1" parent="1kh6kqir1uOIHt-jGFc--1">
          <mxGeometry x="40" y="10" width="100" height="30" as="geometry" />
        </mxCell>
        <mxCell id="1kh6kqir1uOIHt-jGFc--3" value="" style="rounded=0;orthogonalLoop=1;jettySize=auto;html=1;entryX=1;entryY=0.25;entryDx=0;entryDy=0;exitX=0;exitY=0.25;exitDx=0;exitDy=0;startArrow=classic;startFill=1;endArrow=none;endFill=0;" edge="1" parent="1kh6kqir1uOIHt-jGFc--1" source="1kh6kqir1uOIHt-jGFc--11" target="1kh6kqir1uOIHt-jGFc--12">
          <mxGeometry relative="1" as="geometry" />
        </mxCell>
        <mxCell id="1kh6kqir1uOIHt-jGFc--4" value="" style="edgeStyle=orthogonalEdgeStyle;rounded=0;orthogonalLoop=1;jettySize=auto;html=1;entryX=0;entryY=0.5;entryDx=0;entryDy=0;" edge="1" parent="1kh6kqir1uOIHt-jGFc--1" source="1kh6kqir1uOIHt-jGFc--11" target="1kh6kqir1uOIHt-jGFc--15">
          <mxGeometry relative="1" as="geometry">
            <Array as="points">
              <mxPoint x="640" y="180" />
              <mxPoint x="640" y="100" />
            </Array>
          </mxGeometry>
        </mxCell>
        <mxCell id="1kh6kqir1uOIHt-jGFc--5" value="" style="edgeStyle=orthogonalEdgeStyle;rounded=0;orthogonalLoop=1;jettySize=auto;html=1;entryX=0;entryY=0.5;entryDx=0;entryDy=0;" edge="1" parent="1kh6kqir1uOIHt-jGFc--1" source="1kh6kqir1uOIHt-jGFc--11" target="1kh6kqir1uOIHt-jGFc--16">
          <mxGeometry relative="1" as="geometry">
            <Array as="points">
              <mxPoint x="640" y="180" />
              <mxPoint x="640" y="260" />
            </Array>
          </mxGeometry>
        </mxCell>
        <mxCell id="1kh6kqir1uOIHt-jGFc--6" value="" style="edgeStyle=orthogonalEdgeStyle;rounded=0;orthogonalLoop=1;jettySize=auto;html=1;entryX=0;entryY=0.5;entryDx=0;entryDy=0;exitX=1;exitY=0.5;exitDx=0;exitDy=0;" edge="1" parent="1kh6kqir1uOIHt-jGFc--1" source="1kh6kqir1uOIHt-jGFc--11" target="1kh6kqir1uOIHt-jGFc--17">
          <mxGeometry relative="1" as="geometry">
            <Array as="points">
              <mxPoint x="580" y="180" />
              <mxPoint x="580" y="180" />
            </Array>
          </mxGeometry>
        </mxCell>
        <mxCell id="1kh6kqir1uOIHt-jGFc--7" value="" style="edgeStyle=orthogonalEdgeStyle;rounded=0;orthogonalLoop=1;jettySize=auto;html=1;exitX=0.5;exitY=1;exitDx=0;exitDy=0;dashed=1;" edge="1" parent="1kh6kqir1uOIHt-jGFc--1" source="1kh6kqir1uOIHt-jGFc--11" target="1kh6kqir1uOIHt-jGFc--19">
          <mxGeometry relative="1" as="geometry">
            <Array as="points">
              <mxPoint x="460" y="330" />
              <mxPoint x="620" y="330" />
            </Array>
          </mxGeometry>
        </mxCell>
        <mxCell id="1kh6kqir1uOIHt-jGFc--8" value="" style="edgeStyle=orthogonalEdgeStyle;rounded=0;orthogonalLoop=1;jettySize=auto;html=1;exitX=0.5;exitY=1;exitDx=0;exitDy=0;dashed=1;" edge="1" parent="1kh6kqir1uOIHt-jGFc--1" source="1kh6kqir1uOIHt-jGFc--11" target="1kh6kqir1uOIHt-jGFc--21">
          <mxGeometry relative="1" as="geometry">
            <Array as="points">
              <mxPoint x="460" y="330" />
              <mxPoint x="300" y="330" />
            </Array>
          </mxGeometry>
        </mxCell>
        <mxCell id="1kh6kqir1uOIHt-jGFc--9" value="" style="edgeStyle=orthogonalEdgeStyle;rounded=0;orthogonalLoop=1;jettySize=auto;html=1;dashed=1;" edge="1" parent="1kh6kqir1uOIHt-jGFc--1" source="1kh6kqir1uOIHt-jGFc--11" target="1kh6kqir1uOIHt-jGFc--23">
          <mxGeometry relative="1" as="geometry" />
        </mxCell>
        <mxCell id="1kh6kqir1uOIHt-jGFc--10" value="" style="edgeStyle=orthogonalEdgeStyle;rounded=0;orthogonalLoop=1;jettySize=auto;html=1;exitX=0.75;exitY=0;exitDx=0;exitDy=0;entryX=0.225;entryY=-0.05;entryDx=0;entryDy=0;entryPerimeter=0;" edge="1" parent="1kh6kqir1uOIHt-jGFc--1" source="1kh6kqir1uOIHt-jGFc--11" target="1kh6kqir1uOIHt-jGFc--11">
          <mxGeometry relative="1" as="geometry">
            <mxPoint x="460" y="120" as="targetPoint" />
            <Array as="points">
              <mxPoint x="490" y="80" />
              <mxPoint x="427" y="80" />
            </Array>
          </mxGeometry>
        </mxCell>
        <mxCell id="1kh6kqir1uOIHt-jGFc--11" value="项目部" style="rounded=0;whiteSpace=wrap;html=1;" vertex="1" parent="1kh6kqir1uOIHt-jGFc--1">
          <mxGeometry x="400" y="120" width="120" height="120" as="geometry" />
        </mxCell>
        <mxCell id="FRgVPfYhNc8x0Fxy9aP9-1" value="" style="edgeStyle=orthogonalEdgeStyle;rounded=0;orthogonalLoop=1;jettySize=auto;html=1;entryX=0.469;entryY=0.992;entryDx=0;entryDy=0;entryPerimeter=0;exitX=0.5;exitY=1;exitDx=0;exitDy=0;dashed=1;dashPattern=8 8;" edge="1" parent="1kh6kqir1uOIHt-jGFc--1" source="1kh6kqir1uOIHt-jGFc--12" target="1kh6kqir1uOIHt-jGFc--21">
          <mxGeometry relative="1" as="geometry">
            <mxPoint x="180" y="320" as="targetPoint" />
            <Array as="points">
              <mxPoint x="120" y="440" />
              <mxPoint x="296" y="440" />
            </Array>
          </mxGeometry>
        </mxCell>
        <mxCell id="FRgVPfYhNc8x0Fxy9aP9-3" value="" style="edgeStyle=orthogonalEdgeStyle;rounded=0;orthogonalLoop=1;jettySize=auto;html=1;entryX=0.5;entryY=1;entryDx=0;entryDy=0;dashed=1;dashPattern=8 8;" edge="1" parent="1kh6kqir1uOIHt-jGFc--1" source="1kh6kqir1uOIHt-jGFc--12" target="1kh6kqir1uOIHt-jGFc--23">
          <mxGeometry relative="1" as="geometry">
            <mxPoint x="119.5" y="320" as="targetPoint" />
            <Array as="points">
              <mxPoint x="120" y="480" />
              <mxPoint x="460" y="480" />
            </Array>
          </mxGeometry>
        </mxCell>
        <mxCell id="FRgVPfYhNc8x0Fxy9aP9-5" value="" style="edgeStyle=orthogonalEdgeStyle;rounded=0;orthogonalLoop=1;jettySize=auto;html=1;entryX=0.5;entryY=1;entryDx=0;entryDy=0;exitX=0.5;exitY=1;exitDx=0;exitDy=0;dashed=1;dashPattern=8 8;" edge="1" parent="1kh6kqir1uOIHt-jGFc--1" source="1kh6kqir1uOIHt-jGFc--12" target="1kh6kqir1uOIHt-jGFc--19">
          <mxGeometry relative="1" as="geometry">
            <mxPoint x="119.5" y="320" as="targetPoint" />
            <Array as="points">
              <mxPoint x="120" y="520" />
              <mxPoint x="620" y="520" />
            </Array>
          </mxGeometry>
        </mxCell>
        <mxCell id="1kh6kqir1uOIHt-jGFc--12" value="水处管理处" style="rounded=0;whiteSpace=wrap;html=1;" vertex="1" parent="1kh6kqir1uOIHt-jGFc--1">
          <mxGeometry x="40" y="120" width="159" height="120" as="geometry" />
        </mxCell>
        <mxCell id="1kh6kqir1uOIHt-jGFc--13" value="1、成立" style="text;html=1;align=center;verticalAlign=middle;resizable=0;points=[];autosize=1;strokeColor=none;fillColor=none;" vertex="1" parent="1kh6kqir1uOIHt-jGFc--1">
          <mxGeometry x="280" y="116" width="70" height="30" as="geometry" />
        </mxCell>
        <mxCell id="1kh6kqir1uOIHt-jGFc--14" value="5、下发通过验收涵" style="text;html=1;align=center;verticalAlign=middle;resizable=0;points=[];autosize=1;strokeColor=none;fillColor=none;" vertex="1" parent="1kh6kqir1uOIHt-jGFc--1">
          <mxGeometry x="325" y="281" width="130" height="30" as="geometry" />
        </mxCell>
        <mxCell id="1kh6kqir1uOIHt-jGFc--15" value="施工段A" style="rounded=0;whiteSpace=wrap;html=1;" vertex="1" parent="1kh6kqir1uOIHt-jGFc--1">
          <mxGeometry x="680" y="80" width="120" height="40" as="geometry" />
        </mxCell>
        <mxCell id="1kh6kqir1uOIHt-jGFc--16" value="施工段C" style="rounded=0;whiteSpace=wrap;html=1;" vertex="1" parent="1kh6kqir1uOIHt-jGFc--1">
          <mxGeometry x="680" y="240" width="120" height="40" as="geometry" />
        </mxCell>
        <mxCell id="1kh6kqir1uOIHt-jGFc--17" value="施工段B" style="rounded=0;whiteSpace=wrap;html=1;" vertex="1" parent="1kh6kqir1uOIHt-jGFc--1">
          <mxGeometry x="680" y="160" width="120" height="40" as="geometry" />
        </mxCell>
        <mxCell id="1kh6kqir1uOIHt-jGFc--19" value="监理企业" style="rounded=0;whiteSpace=wrap;html=1;" vertex="1" parent="1kh6kqir1uOIHt-jGFc--1">
          <mxGeometry x="560" y="360" width="120" height="40" as="geometry" />
        </mxCell>
        <mxCell id="1kh6kqir1uOIHt-jGFc--21" value="设计企业" style="rounded=0;whiteSpace=wrap;html=1;" vertex="1" parent="1kh6kqir1uOIHt-jGFc--1">
          <mxGeometry x="240" y="360" width="120" height="40" as="geometry" />
        </mxCell>
        <mxCell id="1kh6kqir1uOIHt-jGFc--23" value="施工企业" style="rounded=0;whiteSpace=wrap;html=1;" vertex="1" parent="1kh6kqir1uOIHt-jGFc--1">
          <mxGeometry x="400" y="360" width="120" height="40" as="geometry" />
        </mxCell>
        <mxCell id="1kh6kqir1uOIHt-jGFc--24" value="2、验收" style="text;html=1;align=center;verticalAlign=middle;resizable=0;points=[];autosize=1;strokeColor=none;fillColor=none;" vertex="1" parent="1kh6kqir1uOIHt-jGFc--1">
          <mxGeometry x="531" y="145" width="70" height="30" as="geometry" />
        </mxCell>
        <mxCell id="1kh6kqir1uOIHt-jGFc--28" value="3、专家评审结果通过验收" style="text;html=1;align=center;verticalAlign=middle;resizable=0;points=[];autosize=1;strokeColor=none;fillColor=none;" vertex="1" parent="1kh6kqir1uOIHt-jGFc--1">
          <mxGeometry x="360" y="40" width="160" height="30" as="geometry" />
        </mxCell>
        <mxCell id="hUUt7Ghxs5mffS5p5XXs-0" value="" style="rounded=0;orthogonalLoop=1;jettySize=auto;html=1;entryX=1;entryY=0.75;entryDx=0;entryDy=0;exitX=0;exitY=0.75;exitDx=0;exitDy=0;startArrow=none;startFill=0;endArrow=classic;endFill=1;" edge="1" parent="1kh6kqir1uOIHt-jGFc--1" source="1kh6kqir1uOIHt-jGFc--11" target="1kh6kqir1uOIHt-jGFc--12">
          <mxGeometry relative="1" as="geometry">
            <mxPoint x="410" y="190" as="sourcePoint" />
            <mxPoint x="250" y="190" as="targetPoint" />
          </mxGeometry>
        </mxCell>
        <mxCell id="hUUt7Ghxs5mffS5p5XXs-1" value="4、提交验收通过报告" style="text;html=1;align=center;verticalAlign=middle;resizable=0;points=[];autosize=1;strokeColor=none;fillColor=none;" vertex="1" parent="1kh6kqir1uOIHt-jGFc--1">
          <mxGeometry x="255" y="178" width="140" height="30" as="geometry" />
        </mxCell>
        <mxCell id="mImXpQ0HqhNYsfz-8r3w-0" value="6、结掉项目款" style="text;html=1;align=center;verticalAlign=middle;resizable=0;points=[];autosize=1;strokeColor=none;fillColor=none;" vertex="1" parent="1kh6kqir1uOIHt-jGFc--1">
          <mxGeometry x="120" y="290" width="100" height="30" as="geometry" />
        </mxCell>
      </root>
    </mxGraphModel>
  </diagram>
</mxfile>
